<?xml version="1.0" standalone="no"?>
<!DOCTYPE svg PUBLIC "-//W3C//DTD SVG 1.1//EN" "http://www.w3.org/Graphics/SVG/1.1/DTD/svg11.dtd" >
<svg xmlns="http://www.w3.org/2000/svg">
<metadata>Generated by IcoMoon</metadata>
<defs>
<font id="ico" horiz-adv-x="1024">
<font-face units-per-em="1024" ascent="960" descent="-64" />
<missing-glyph horiz-adv-x="1024" />
<glyph unicode="&#x20;" horiz-adv-x="512" d="" />
<glyph unicode="&#xe900;" glyph-name="addicon" d="M0.050-63.954v1023.9h1023.9v-1023.9h-1023.9zM955.69 891.686h-887.38v-887.38h887.38v887.38zM477.87 755.166h68.26v-273.040h273.040v-68.26h-273.040v-273.040h-68.26v273.040h-273.040v68.26h273.040v273.040z" />
<glyph unicode="&#xe901;" glyph-name="minus" d="M0.030-63.941v1023.94h1023.94v-1023.94h-1023.94zM955.707 891.737h-887.415v-887.415h887.415v887.415zM819.182 413.898h-614.364v68.263h614.364v-68.263z" />
<glyph unicode="&#xe902;" glyph-name="report" horiz-adv-x="1435" d="M1238.453-64l-0.45-0.492c122.19 132.112 196.861 308.818 196.861 502.963 0 187.563-69.693 358.848-183.888 488.552l-93.66-88.521-0.604 0.704c93.758-107.099 150.577-247.351 150.577-400.875 0-159.973-61.694-305.536-162.236-413.812l93.399-88.521zM1045.393 144.922l-0.482-0.57c68.25 78.911 109.537 181.788 109.537 294.307 0 119.243-46.368 227.657-121.838 307.958l-93.66-88.494-0.114 0.121c54.539-57.068 88.037-134.416 88.037-219.587 0-78.445-28.416-150.254-75.139-205.239zM730.497 301.248v0c86.452 0 156.535 70.083 156.535 156.535v0c0 86.452-70.083 156.535-156.535 156.535s-156.535-70.083-156.535-156.535c0-86.452 70.083-156.535 156.535-156.535zM507.174 238.347l0.041-0.042c-55.526 56.427-89.784 133.845-89.784 219.264 0 78.663 29.053 150.541 76.699 205.118l-95.486 88.442 0.38 0.434c-69.687-78.097-112.041-181.109-112.041-294.012 0-119.643 47.562-228.178 124.706-307.62zM283.85 58.071l0.468-0.527c-95.622 105.965-153.838 246.338-153.838 400.308 0 160.576 63.319 306.364 166.154 413.549l-95.747 88.442 0.271 0.286c-124.632-130.608-201.161-307.518-201.161-502.303 0-188.179 71.427-359.675 188.106-488.25l95.747 88.416z" />
<glyph unicode="&#xe903;" glyph-name="detect" d="M575.983 511.983l427.52 70.29-0.857 3.588c-48.683 174.076-187.422 310.549-366.359 356.796l-60.304-430.673zM128.103 448v0c0 212.021 171.877 383.897 383.897 383.897v127.966c-282.694 0-511.863-229.169-511.863-511.863s229.169-511.863 511.863-511.863c282.694 0 511.863 229.169 511.863 511.863h-127.966c0-212.021-171.877-383.897-383.897-383.897s-383.897 171.877-383.897 383.897z" />
<glyph unicode="&#xe904;" glyph-name="dispatch" d="M342.543-63.917h-112.645l-200.242 868.653c41.729 14.842 76.827 30.659 110.413 48.906l-4.046-2.011c41.132 22.963 213.659 181.88 319.165 66.998s117.999-240.256 375.477-187.599c116.107 26.791 137.608 46.894 137.608 46.894s32.252 15.051 25.028-20.104-226.172-368.511-337.936-368.511c-94.756 0-78.652 107.184-219.012 107.184-78.215-9.971-144.913-52.377-187.149-113.079l-0.579-0.878c93.918-390.464 93.918-446.453 93.918-446.453zM462.95 652.764s-22.576 81.576-48.163 153.562c-22.576 91.187-201.618 17.61-240.815-51.173l48.141-204.778s153.476 140.769 240.815 102.389z" />
<glyph unicode="&#xe905;" glyph-name="add" d="M1007.38 358.74h-396.8v-396.8h-198.4v396.8h-396.8v198.4h396.8v396.8h198.4v-396.8h396.8v-198.4z" />
<glyph unicode="&#xe906;" glyph-name="delet" d="M687.572 673.452h-631.272v90.182h270.546v180.364h360.728v-180.364h270.546v-90.182h-270.546zM867.936-48.003h-721.454v631.272h721.454v-631.272zM417.028 493.089h-90.182v-450.91h90.182v450.91zM687.572 493.089h-90.182v-450.91h90.182v450.91z" />
<glyph unicode="&#xe907;" glyph-name="editor" d="M55.89-45.867v91.009h910.091v-91.009h-910.091zM565.541 846.023l118.311 100.11h91.009l182.018-182.018v-91.009l-118.311-100.11-273.028 273.028zM774.862 518.39l-445.945-382.239h-273.028v273.028l445.945 382.239 273.028-273.028z" />
<glyph unicode="&#xe908;" glyph-name="export" d="M612.647 587.872l-149.188 149.188h526.546v-526.546l-140.413 140.413c-87.758-52.655-272.049-140.413-473.891-140.413-272.049 0-351.031 175.515-351.031 175.515s377.358-149.188 587.976 201.842z" />
<glyph unicode="&#xe909;" glyph-name="import" d="M417.112 351.951l149.187-149.187h-526.545v526.545l140.412-140.412c87.758 52.655 272.049 140.412 473.891 140.412 272.049 0 351.030-175.515 351.030-175.515s-377.358 149.187-587.976-201.842z" />
<glyph unicode="&#xe90a;" glyph-name="info" d="M0.137-63.863v1023.726h1023.726v-1023.726h-1023.726zM895.897 831.897h-767.794v-767.794h767.794v767.794zM767.931 511.983h-511.863v127.966h511.863v-127.966zM767.931 256.051h-511.863v127.966h511.863v-127.966z" />
<glyph unicode="&#xe90b;" glyph-name="up-arrow" d="M997.333 254.933h-970.667v97.067l485.333 485.333 485.333-485.333v-97.067z" />
<glyph unicode="&#xe90c;" glyph-name="down-arrow" d="M997.333 643.413l-485.333-485.333-485.333 485.333v97.067h970.666v-97.067z" />
<glyph unicode="&#xe90d;" glyph-name="refresh" d="M1024.001 474.791l-178.605-238.139-178.605 238.139h119.070c-17.86 130.977-125.023 238.139-261.953 238.139-77.395 0-142.884-35.721-190.512-83.349l-83.349 83.349c71.442 71.442 166.698 119.070 279.814 119.070 202.419 0 369.116-154.791 386.977-357.209h107.163zM250.048 415.256c17.86-130.977 125.023-238.139 261.953-238.139 89.302 0 166.698 41.674 214.325 113.116l83.349-83.349c-71.442-89.302-178.605-142.884-303.628-142.884-202.419 0-369.116 154.791-386.977 357.209h-119.070l178.605 238.139 178.605-238.139h-107.163z" />
<glyph unicode="&#xe90e;" glyph-name="repair-order" d="M16-48v992h992v-992h-992zM891.294 827.295h-758.588v-758.588h758.588v758.588zM774.587 593.883h-525.177v116.706h525.177v-116.706zM657.882 360.471h-408.471v116.706h408.471v-116.706z" />
<glyph unicode="&#xe90f;" glyph-name="search" d="M998.558-19.479l-12.72-12.72c-25.441-25.441-63.602-25.441-82.683 0l-254.41 254.41c-69.963-50.882-152.646-76.323-241.689-76.323-222.609 0-407.056 184.447-407.056 407.056s184.447 407.056 407.056 407.056c222.609 0 407.056-184.447 407.056-407.056 0-89.043-25.441-165.366-69.963-235.329l254.41-254.41c25.441-25.441 25.441-63.602 0-82.683zM413.416 826.434c-146.286 0-273.491-120.845-273.491-273.491s120.845-273.491 273.491-273.491c146.286 0 273.491 120.845 273.491 273.491-6.36 152.646-127.205 273.491-273.491 273.491z" />
<glyph unicode="&#xe910;" glyph-name="left-arrow2" d="M1024 21.333l-85.333-85.333-512 512 512 512 85.333-85.333-426.667-426.667 426.667-426.667zM597.333 21.333l-85.333-85.333-512 512 512 512 85.333-85.333-426.667-426.667 426.667-426.667z" />
<glyph unicode="&#xe911;" glyph-name="right-arrow2" d="M426.667 448l-426.667 426.667 85.333 85.333 512-512-512-512-85.333 85.333 426.667 426.667zM853.333 448l-426.667 426.667 85.333 85.333 512-512-512-512-85.333 85.333 426.667 426.667z" />
<glyph unicode="&#xe912;" glyph-name="set" d="M1017.756 504.195c0 12.488-18.732 24.976-31.22 24.976-43.707 0-87.415 24.976-106.146 68.683s-6.244 93.659 24.976 124.878c12.488 12.488 12.488 24.976 0 37.463-24.976 31.22-49.951 56.195-81.171 81.171-12.488 6.244-24.976 6.244-37.463 0-31.22-31.22-81.171-43.707-124.878-24.976s-68.683 62.439-68.683 106.146c0 12.488-12.488 24.976-24.976 31.22-37.463 6.244-74.927 6.244-112.39 0-12.488 0-24.976-12.488-24.976-31.22 0-43.707-24.976-87.415-68.683-106.146s-93.659-6.244-124.878 31.22c-12.488 12.488-24.976 12.488-37.463 6.244-31.22-24.976-56.195-49.951-81.171-81.171-6.244-12.488-6.244-31.22 0-37.463 37.463-31.22 43.707-81.171 24.976-124.878s-62.439-68.683-106.146-68.683c-18.732 0-24.976-12.488-31.22-24.976-6.244-37.463-6.244-74.927 0-112.39 0-12.488 18.732-24.976 31.22-24.976 43.707 0 87.415-24.976 99.902-68.683 18.732-43.707 6.244-93.659-24.976-124.878-12.488-12.488-12.488-24.976 0-37.463 24.976-31.22 49.951-56.195 81.171-81.171 12.488-6.244 24.976-6.244 37.463 0 31.22 31.22 81.171 43.707 124.878 24.976s68.683-62.439 68.683-106.146c0-12.488 12.488-24.976 24.976-31.22 18.732 0 37.463-6.244 56.195-6.244s37.463 0 56.195 0c12.488 0 24.976 12.488 24.976 31.22 0 43.707 24.976 87.415 68.683 106.146s93.659 6.244 124.878-31.22c12.488-12.488 24.976-12.488 37.463-6.244 31.22 24.976 56.195 49.951 81.171 81.171 6.244 12.488 6.244 31.22 0 37.463-37.463 31.22-43.707 81.171-24.976 124.878 18.732 37.463 56.195 68.683 99.902 68.683h6.244c12.488 0 24.976 12.488 31.22 24.976 12.488 43.707 12.488 81.171 6.244 118.634zM524.487 198.243c-137.366 0-249.756 112.39-249.756 249.756s112.39 249.756 249.756 249.756c137.366 0 249.756-112.39 249.756-249.756s-112.39-249.756-249.756-249.756z" />
<glyph unicode="&#xe913;" glyph-name="top-search" d="M1024 58.985l-106.985-106.985-152.836 152.836c-175.761-129.91-427.94-114.627-588.418 45.851-175.761 175.761-175.761 466.149 0 649.552 175.761 175.761 466.149 175.761 649.552 0 160.478-160.478 175.761-412.657 45.851-588.418l152.836-152.836zM718.328 685.612c-122.269 122.269-313.313 122.269-435.582 0s-122.269-313.313 0-435.582c122.269-122.269 313.313-122.269 435.582 0s114.627 320.955 0 435.582z" />
<glyph unicode="&#xe914;" glyph-name="event" d="M783.086-64.084l-240.761 135.549v271.099l240.761 135.549 240.761-135.549v-271.099zM903.359 282.32l-120.273 75.305-120.273-75.305v-150.61l120.273-75.305 120.273 75.305v150.61zM301.348 553.418v271.099l240.761 135.549 240.761-135.549v-271.099l-240.761-135.549zM662.382 764.273l-120.273 75.305-120.273-75.305v-150.61l120.273-75.305 120.273 75.305v150.61zM481.65 71.465l-240.761-135.549-240.761 135.549v271.099l240.761 135.549 240.761-135.549v-271.099zM361.162 282.32l-120.273 75.305-120.273-75.305v-150.61l120.273-75.305 120.273 75.305v150.61z" />
<glyph unicode="&#xe915;" glyph-name="first" d="M853.338 618.662h136.533v341.333h-1024v-750.933h273.067v136.533h-136.533v477.867h750.933v-204.8zM375.471 482.129v-546.133h682.667v546.133h-682.667zM512.005 345.596h409.6v-273.067h-409.6v273.067z" />
<glyph unicode="&#xe916;" glyph-name="notice" d="M512.001-63.863c-282.694 0-511.863 229.169-511.863 511.863s229.169 511.863 511.863 511.863c282.694 0 511.863-229.169 511.863-511.863v0c0-282.694-229.169-511.863-511.863-511.863v0zM512.001 831.897c-212.021 0-383.897-171.877-383.897-383.897s171.877-383.897 383.897-383.897c212.021 0 383.897 171.877 383.897 383.897v0c0 212.021-171.877 383.897-383.897 383.897v0zM512.001 192.069c-141.347 0-255.931 114.584-255.931 255.931s114.584 255.931 255.931 255.931c141.347 0 255.931-114.584 255.931-255.931v0c0-141.347-114.584-255.931-255.931-255.931v0zM512.001 575.966c-70.674 0-127.966-57.292-127.966-127.966s57.292-127.966 127.966-127.966c70.674 0 127.966 57.292 127.966 127.966v0c0 70.674-57.292 127.966-127.966 127.966v0z" />
<glyph unicode="&#xe917;" glyph-name="protection" d="M575.984-63.863h-575.846v767.794h191.949v255.931h639.829v-255.931h191.949v-767.794h-447.88zM703.95 831.897h-383.897v-127.966h383.897v127.966zM895.899 320.034v255.931h-767.794v-511.863h767.794v255.931zM256.070 448h511.863v-127.966h-511.863v127.966z" />
<glyph unicode="&#xe918;" glyph-name="screen" d="M1023.864 448.508v0c0 282.694-229.169 511.863-511.863 511.863s-511.863-229.169-511.863-511.863v-63.983h127.966v63.983c0 212.021 171.877 383.897 383.897 383.897s383.897-171.877 383.897-383.897v-63.983h127.966v63.983zM448.019 439.368v201.089h127.966v-201.089c111.264-29.43 191.949-129.195 191.949-247.805 0-141.347-114.584-255.931-255.931-255.931s-255.931 114.584-255.931 255.931c0 118.61 80.685 218.375 190.163 247.402l1.786 0.403zM512.001 64.611c70.674 0 127.966 57.292 127.966 127.966s-57.292 127.966-127.966 127.966c-70.674 0-127.966-57.292-127.966-127.966v0c0-70.674 57.292-127.966 127.966-127.966v0z" />
<glyph unicode="&#xe919;" glyph-name="warning" d="M571.432-54.6c-51.82-19.881-121.171-2.427-121.171-2.427-196.108 63.571-369.677 339.047-369.677 339.047v550.952l369.677 127.143h123.29l369.87-127.143v-550.952c0-0.154-175.881-273.723-371.989-336.62zM835.542 758.112l-277.21 93.835h-92.467l-277.402-93.835v-460.526s130.032-203.332 277.402-250.202c12.593-3.145 27.049-4.95 41.927-4.95 17.378 0 34.18 2.462 50.078 7.056l-1.272-0.315c147.177 46.426 278.943 248.333 278.943 248.41v460.526zM458.159 419.912v-215.757l215.757 323.636h-107.879l-53.939 215.757-161.818-323.636h107.879z" />
</font>
</defs>
</svg>
